<svg width="27" height="20" viewBox="0 0 27 20" fill="none" xmlns="http://www.w3.org/2000/svg">
<rect x="0.431641" y="0.298828" width="26.1856" height="19.0441" rx="2.38051" fill="white"/>
<mask id="mask0_21_5886" style="mask-type:luminance" maskUnits="userSpaceOnUse" x="0" y="0" width="27" height="20">
<rect x="0.431641" y="0.298828" width="26.1856" height="19.0441" rx="2.38051" fill="white"/>
</mask>
<g mask="url(#mask0_21_5886)">
<path fill-rule="evenodd" clip-rule="evenodd" d="M26.6173 0.298828H0.431641V1.56843H26.6173V0.298828ZM26.6173 2.83807H0.431641V4.10768H26.6173V2.83807ZM0.431641 5.37725H26.6173V6.64685H0.431641V5.37725ZM26.6173 7.91649H0.431641V9.1861H26.6173V7.91649ZM0.431641 10.4557H26.6173V11.7253H0.431641V10.4557ZM26.6173 12.9949H0.431641V14.2645H26.6173V12.9949ZM0.431641 15.5341H26.6173V16.8037H0.431641V15.5341ZM26.6173 18.0733H0.431641V19.3429H26.6173V18.0733Z" fill="#D02F44"/>
<rect x="0.431641" y="0.298828" width="11.2224" height="8.88724" fill="#46467F"/>
<g filter="url(#filter0_d_21_5886)">
<path fill-rule="evenodd" clip-rule="evenodd" d="M5.41909 2.20322C5.41909 2.55382 5.13996 2.83803 4.79562 2.83803C4.45129 2.83803 4.17216 2.55382 4.17216 2.20322C4.17216 1.85263 4.45129 1.56842 4.79562 1.56842C5.13996 1.56842 5.41909 1.85263 5.41909 2.20322ZM2.92471 2.20323C2.92471 2.55382 2.64558 2.83803 2.30125 2.83803C1.95692 2.83803 1.67778 2.55382 1.67778 2.20323C1.67778 1.85264 1.95692 1.56843 2.30125 1.56843C2.64558 1.56843 2.92471 1.85264 2.92471 2.20323ZM7.28772 2.83803C7.63205 2.83803 7.91119 2.55382 7.91119 2.20322C7.91119 1.85263 7.63205 1.56842 7.28772 1.56842C6.94339 1.56842 6.66425 1.85263 6.66425 2.20322C6.66425 2.55382 6.94339 2.83803 7.28772 2.83803ZM10.4056 2.20322C10.4056 2.55382 10.1265 2.83803 9.78214 2.83803C9.43781 2.83803 9.15868 2.55382 9.15868 2.20322C9.15868 1.85263 9.43781 1.56842 9.78214 1.56842C10.1265 1.56842 10.4056 1.85263 10.4056 2.20322ZM3.54725 4.10761C3.89158 4.10761 4.17072 3.8234 4.17072 3.47281C4.17072 3.12222 3.89158 2.83801 3.54725 2.83801C3.20292 2.83801 2.92378 3.12222 2.92378 3.47281C2.92378 3.8234 3.20292 4.10761 3.54725 4.10761ZM6.66514 3.47281C6.66514 3.8234 6.386 4.10761 6.04167 4.10761C5.69734 4.10761 5.41821 3.8234 5.41821 3.47281C5.41821 3.12222 5.69734 2.83801 6.04167 2.83801C6.386 2.83801 6.66514 3.12222 6.66514 3.47281ZM8.53609 4.10761C8.88043 4.10761 9.15956 3.8234 9.15956 3.47281C9.15956 3.12222 8.88043 2.83801 8.53609 2.83801C8.19176 2.83801 7.91263 3.12222 7.91263 3.47281C7.91263 3.8234 8.19176 4.10761 8.53609 4.10761ZM10.4056 4.74247C10.4056 5.09306 10.1265 5.37727 9.78214 5.37727C9.43781 5.37727 9.15868 5.09306 9.15868 4.74247C9.15868 4.39188 9.43781 4.10767 9.78214 4.10767C10.1265 4.10767 10.4056 4.39188 10.4056 4.74247ZM7.28772 5.37727C7.63205 5.37727 7.91119 5.09306 7.91119 4.74247C7.91119 4.39188 7.63205 4.10767 7.28772 4.10767C6.94339 4.10767 6.66425 4.39188 6.66425 4.74247C6.66425 5.09306 6.94339 5.37727 7.28772 5.37727ZM5.41909 4.74247C5.41909 5.09306 5.13996 5.37727 4.79562 5.37727C4.45129 5.37727 4.17216 5.09306 4.17216 4.74247C4.17216 4.39188 4.45129 4.10767 4.79562 4.10767C5.13996 4.10767 5.41909 4.39188 5.41909 4.74247ZM2.3012 5.37727C2.64553 5.37727 2.92467 5.09306 2.92467 4.74247C2.92467 4.39188 2.64553 4.10767 2.3012 4.10767C1.95687 4.10767 1.67773 4.39188 1.67773 4.74247C1.67773 5.09306 1.95687 5.37727 2.3012 5.37727ZM4.17072 6.01206C4.17072 6.36265 3.89158 6.64686 3.54725 6.64686C3.20292 6.64686 2.92378 6.36265 2.92378 6.01206C2.92378 5.66146 3.20292 5.37725 3.54725 5.37725C3.89158 5.37725 4.17072 5.66146 4.17072 6.01206ZM6.04167 6.64686C6.386 6.64686 6.66514 6.36265 6.66514 6.01206C6.66514 5.66146 6.386 5.37725 6.04167 5.37725C5.69734 5.37725 5.41821 5.66146 5.41821 6.01206C5.41821 6.36265 5.69734 6.64686 6.04167 6.64686ZM9.15956 6.01206C9.15956 6.36265 8.88043 6.64686 8.53609 6.64686C8.19176 6.64686 7.91263 6.36265 7.91263 6.01206C7.91263 5.66146 8.19176 5.37725 8.53609 5.37725C8.88043 5.37725 9.15956 5.66146 9.15956 6.01206ZM9.78214 7.91644C10.1265 7.91644 10.4056 7.63223 10.4056 7.28164C10.4056 6.93105 10.1265 6.64684 9.78214 6.64684C9.43781 6.64684 9.15868 6.93105 9.15868 7.28164C9.15868 7.63223 9.43781 7.91644 9.78214 7.91644ZM7.91119 7.28164C7.91119 7.63223 7.63205 7.91644 7.28772 7.91644C6.94339 7.91644 6.66425 7.63223 6.66425 7.28164C6.66425 6.93105 6.94339 6.64684 7.28772 6.64684C7.63205 6.64684 7.91119 6.93105 7.91119 7.28164ZM4.79562 7.91644C5.13996 7.91644 5.41909 7.63223 5.41909 7.28164C5.41909 6.93105 5.13996 6.64684 4.79562 6.64684C4.45129 6.64684 4.17216 6.93105 4.17216 7.28164C4.17216 7.63223 4.45129 7.91644 4.79562 7.91644ZM2.92467 7.28164C2.92467 7.63223 2.64553 7.91644 2.3012 7.91644C1.95687 7.91644 1.67773 7.63223 1.67773 7.28164C1.67773 6.93105 1.95687 6.64684 2.3012 6.64684C2.64553 6.64684 2.92467 6.93105 2.92467 7.28164Z" fill="url(#paint0_linear_21_5886)"/>
</g>
</g>
<defs>
<filter id="filter0_d_21_5886" x="1.67773" y="1.56842" width="8.72852" height="7.53828" filterUnits="userSpaceOnUse" color-interpolation-filters="sRGB">
<feFlood flood-opacity="0" result="BackgroundImageFix"/>
<feColorMatrix in="SourceAlpha" type="matrix" values="0 0 0 0 0 0 0 0 0 0 0 0 0 0 0 0 0 0 127 0" result="hardAlpha"/>
<feOffset dy="1.19026"/>
<feColorMatrix type="matrix" values="0 0 0 0 0 0 0 0 0 0 0 0 0 0 0 0 0 0 0.06 0"/>
<feBlend mode="normal" in2="BackgroundImageFix" result="effect1_dropShadow_21_5886"/>
<feBlend mode="normal" in="SourceGraphic" in2="effect1_dropShadow_21_5886" result="shape"/>
</filter>
<linearGradient id="paint0_linear_21_5886" x1="1.67773" y1="1.56842" x2="1.67773" y2="7.91644" gradientUnits="userSpaceOnUse">
<stop stop-color="white"/>
<stop offset="1" stop-color="#F0F0F0"/>
</linearGradient>
</defs>
</svg>
